<svg xmlns="http://www.w3.org/2000/svg" width="131.789" height="182.559" viewBox="0 0 131.789 182.559">
  <g id="Grupo_37" data-name="Grupo 37" transform="translate(-1307.779 -332.285)">
    <g id="Grupo_32" data-name="Grupo 32" transform="translate(1307.779 332.285)">
      <g id="Grupo_14" data-name="Grupo 14" transform="translate(8.912)">
        <g id="Grupo_12" data-name="Grupo 12" transform="translate(2.995 2.995)">
          <rect id="Retângulo_2" data-name="Retângulo 2" width="108.104" height="133.419" rx="54.052" fill="#fff"/>
        </g>
        <g id="Grupo_13" data-name="Grupo 13">
          <path id="Caminho_6" data-name="Caminho 6" d="M1382.784,471.694a57,57,0,0,1-57.047-57.047V389.332a57.047,57.047,0,1,1,114.094,0v25.315a57,57,0,0,1-57.047,57.047Zm0-133.418a51.057,51.057,0,0,0-51.057,51.057v25.315a51.057,51.057,0,0,0,51.057,51.057h0a51.058,51.058,0,0,0,51.057-51.057V389.332a51.057,51.057,0,0,0-51.057-51.057Z" transform="translate(-1325.737 -332.285)"/>
        </g>
      </g>
      <g id="Grupo_17" data-name="Grupo 17" transform="translate(0 52.05)">
        <g id="Grupo_15" data-name="Grupo 15" transform="translate(2.995 2.995)">
          <path id="Retângulo_3" data-name="Retângulo 3" d="M8.912,0h0a0,0,0,0,1,0,0V29.318a0,0,0,0,1,0,0h0A8.912,8.912,0,0,1,0,20.407V8.912A8.912,8.912,0,0,1,8.912,0Z" fill="#fff"/>
        </g>
        <g id="Grupo_16" data-name="Grupo 16">
          <path id="Caminho_7" data-name="Caminho 7" d="M1322.681,472.475h-2.995a11.921,11.921,0,0,1-11.907-11.907V449.073a11.92,11.92,0,0,1,11.907-11.907h2.995Zm-5.99-28.5a5.919,5.919,0,0,0-2.922,5.1v11.495a5.921,5.921,0,0,0,2.922,5.1Z" transform="translate(-1307.779 -437.166)"/>
        </g>
      </g>
      <g id="Grupo_20" data-name="Grupo 20" transform="translate(116.887 52.05)">
        <g id="Grupo_18" data-name="Grupo 18" transform="translate(2.995 2.995)">
          <path id="Retângulo_4" data-name="Retângulo 4" d="M8.912,0h0a0,0,0,0,1,0,0V29.318a0,0,0,0,1,0,0h0A8.912,8.912,0,0,1,0,20.407V8.912A8.912,8.912,0,0,1,8.912,0Z" transform="translate(8.912 29.318) rotate(180)" fill="#fff"/>
        </g>
        <g id="Grupo_19" data-name="Grupo 19">
          <path id="Caminho_8" data-name="Caminho 8" d="M1546.3,472.475h-3V437.166h3a11.92,11.92,0,0,1,11.907,11.907v11.495A11.92,11.92,0,0,1,1546.3,472.475Zm3-28.5v21.7a5.92,5.92,0,0,0,2.921-5.1V449.073A5.919,5.919,0,0,0,1549.3,443.972Z" transform="translate(-1543.305 -437.166)"/>
        </g>
      </g>
      <g id="Grupo_27" data-name="Grupo 27" transform="translate(33.064 75.38)">
        <g id="Grupo_23" data-name="Grupo 23" transform="translate(0 3.951)">
          <g id="Grupo_21" data-name="Grupo 21" transform="translate(2.996 2.995)">
            <path id="Caminho_9" data-name="Caminho 9" d="M1440.238,528.1a7.475,7.475,0,1,1-14.95,0,7.475,7.475,0,1,1-14.95,0,7.475,7.475,0,1,1-14.95,0v-.029a7.475,7.475,0,1,1-14.949,0v0a29.9,29.9,0,1,1,59.8,0Z" transform="translate(-1380.439 -498.173)" fill="#fff"/>
          </g>
          <g id="Grupo_22" data-name="Grupo 22">
            <path id="Caminho_10" data-name="Caminho 10" d="M1429.723,535.529a10.44,10.44,0,0,1-7.475-3.145,10.455,10.455,0,0,1-14.95,0,10.454,10.454,0,0,1-14.964-.014,10.465,10.465,0,0,1-17.931-7.334v0h0a32.895,32.895,0,0,1,65.79,0v.026A10.482,10.482,0,0,1,1429.723,535.529Zm-4.479-10.47a4.48,4.48,0,1,0,8.959,0v-.026a26.9,26.9,0,0,0-53.809,0,4.48,4.48,0,0,0,8.959,0,3,3,0,1,1,5.991,0v.028a4.48,4.48,0,1,0,8.959,0,3,3,0,0,1,5.991,0,4.48,4.48,0,1,0,8.959,0,3,3,0,0,1,5.99,0Z" transform="translate(-1374.403 -492.138)"/>
          </g>
        </g>
        <g id="Grupo_26" data-name="Grupo 26" transform="translate(17.505)">
          <g id="Grupo_24" data-name="Grupo 24" transform="translate(2.995 2.995)">
            <path id="Caminho_11" data-name="Caminho 11" d="M1440.5,490.211a12.4,12.4,0,1,1-24.79,0" transform="translate(-1415.71 -490.211)" fill="#fff"/>
          </g>
          <g id="Grupo_25" data-name="Grupo 25">
            <path id="Caminho_12" data-name="Caminho 12" d="M1425.065,502.562a15.408,15.408,0,0,1-15.39-15.391,3,3,0,0,1,5.991,0,9.4,9.4,0,1,0,18.8,0,3,3,0,0,1,5.991,0A15.408,15.408,0,0,1,1425.065,502.562Z" transform="translate(-1409.675 -484.176)"/>
          </g>
        </g>
      </g>
      <g id="Grupo_29" data-name="Grupo 29" transform="translate(29.989 66.669)">
        <g id="Grupo_28" data-name="Grupo 28">
          <circle id="Elipse_1" data-name="Elipse 1" cx="3.035" cy="3.035" r="3.035"/>
        </g>
      </g>
      <g id="Grupo_31" data-name="Grupo 31" transform="translate(95.859 66.669)">
        <g id="Grupo_30" data-name="Grupo 30">
          <circle id="Elipse_2" data-name="Elipse 2" cx="3.035" cy="3.035" r="3.035"/>
        </g>
      </g>
    </g>
    <g id="Grupo_36" data-name="Grupo 36" transform="translate(1311.198 473.506)">
      <g id="Grupo_35" data-name="Grupo 35">
        <g id="Grupo_33" data-name="Grupo 33" transform="translate(2.848 2.848)">
          <path id="Caminho_13" data-name="Caminho 13" d="M1425.321,658.226a17.71,17.71,0,0,1-15.409-8.862h-56.273a17.812,17.812,0,1,1-15.41-26.781h.051a17.72,17.72,0,0,1,15.359,8.862h56.273a17.831,17.831,0,0,1,29.51-1.947,2.848,2.848,0,0,1-2.255,4.587h-8.636a.366.366,0,0,0-.361.361v11.918a.366.366,0,0,0,.361.361h8.636a2.848,2.848,0,0,1,2.255,4.587A17.675,17.675,0,0,1,1425.321,658.226Zm-87.093-11.866,5.158-2.978v-5.954l-5.158-2.978-5.157,2.978v5.955Z" transform="translate(-1320.407 -622.583)" fill="#fff"/>
        </g>
        <g id="Grupo_34" data-name="Grupo 34">
          <path id="Caminho_14" data-name="Caminho 14" d="M1335.339,622.54h.042a14.9,14.9,0,0,1,13.39,8.35l.252.511h59.722l.252-.51a14.982,14.982,0,0,1,25.278-2.545h-8.636a3.213,3.213,0,0,0-3.208,3.209v11.918a3.213,3.213,0,0,0,3.208,3.208h8.636A14.982,14.982,0,0,1,1409,644.137l-.252-.511h-59.722l-.252.511a14.976,14.976,0,0,1-28.407-6.623v-.027a15.016,15.016,0,0,1,14.975-14.946m0,24.217,8.006-4.622v-9.243l-8.006-4.622-8.005,4.622v9.243l8.005,4.622m0-29.913h0a20.71,20.71,0,0,0-20.67,20.632v.037a20.675,20.675,0,0,0,37.642,11.808h53.146a20.684,20.684,0,0,0,33.328.838,5.7,5.7,0,0,0-4.51-9.174h-6.149v-6.944h6.149a5.7,5.7,0,0,0,4.51-9.174,20.683,20.683,0,0,0-33.328.838h-53.147a20.541,20.541,0,0,0-16.913-8.862Zm-2.311,19.336,2.31-1.334,2.311,1.334v2.666l-2.311,1.334-2.31-1.333v-2.667Z" transform="translate(-1314.669 -616.845)"/>
        </g>
      </g>
    </g>
  </g>
</svg>
