<?xml version="1.0" encoding="utf-8"?>
<!-- Generator: Adobe Illustrator 25.0.0, SVG Export Plug-In . SVG Version: 6.00 Build 0)  -->
<svg version="1.1" id="Layer_1" xmlns="http://www.w3.org/2000/svg" xmlns:xlink="http://www.w3.org/1999/xlink" x="0px" y="0px"
	 viewBox="0 0 178.9 44.6" style="enable-background:new 0 0 178.9 44.6;" xml:space="preserve">
<style type="text/css">
	.st0{fill:#1EB5EC;}
	.st1{fill:#FFFFFF;}
	.st2{fill:#00B5EC;}
</style>
<path id="Retângulo_423" class="st0" d="M81.9,0.6h17c2.8,0,4,2.2,4,4.9v33.2c0,2.7-1.2,4.9-4,4.9h-17c-2.8,0-4-2.2-4-4.9V5.5
	C77.9,2.8,79.1,0.6,81.9,0.6z"/>
<path id="Caminho_60" class="st1" d="M0,25.7c0-0.3,0.2-0.5,0.4-0.5c0,0,0,0,0.1,0h3.6c0.3,0,0.4,0.2,0.4,0.5v0.7
	c0,1.8,0.2,2.5,1,2.5c0.8,0,1-0.7,1-2.2V26c0-1.4-0.9-2.4-2.6-4s-4-3.4-4-6.9v-1.5c0-3.7,2.2-6,5.6-6c3.4,0,5.6,2.2,5.6,6v1.5
	c0,0.3-0.2,0.5-0.4,0.5c0,0,0,0-0.1,0H7.1c-0.3,0-0.5-0.2-0.5-0.4c0,0,0,0,0-0.1v-0.8c0-1.7-0.2-2.4-1-2.4c-0.9,0-1,0.7-1,2.2v0.7
	c0,1.4,0.9,2.3,2.6,3.9c1.7,1.6,4,3.5,4,7v1.5c0,3.7-2.2,6-5.6,6c-3.4,0-5.6-2.2-5.6-6L0,25.7z"/>
<path id="Caminho_61" class="st1" d="M13.2,8.4c0-0.3,0.2-0.5,0.4-0.5c0,0,0.1,0,0.1,0h7.1c0.3,0,0.5,0.2,0.5,0.4c0,0,0,0,0,0.1v3.1
	c0,0.3-0.2,0.5-0.4,0.5c0,0,0,0-0.1,0h-2.5c-0.3,0-0.5,0.2-0.5,0.4c0,0,0,0,0,0.1v5.3c0,0.3,0.2,0.5,0.4,0.5c0,0,0,0,0.1,0h2.5
	c0.3,0,0.5,0.2,0.5,0.4c0,0,0,0,0,0.1v3.1c0,0.3-0.2,0.5-0.4,0.5c0,0,0,0-0.1,0h-2.5c-0.3,0-0.5,0.2-0.5,0.4c0,0,0,0,0,0.1v5.5
	c0,0.3,0.2,0.5,0.4,0.5c0,0,0,0,0.1,0h2.5c0.3,0,0.5,0.2,0.5,0.4c0,0,0,0,0,0.1v3.1c0,0.3-0.2,0.5-0.4,0.5c0,0,0,0-0.1,0h-7.1
	c-0.3,0-0.5-0.2-0.5-0.4c0,0,0,0,0-0.1L13.2,8.4z"/>
<path id="Caminho_62" class="st1" d="M23.8,32.5V8.4c0-0.3,0.2-0.5,0.5-0.5c0,0,0,0,0,0h3.2c0.3,0,0.5,0.1,0.6,0.4c0,0,0,0,0,0
	l3.3,10.9c0.1,0.2,0.3,0.2,0.3,0V8.4c0-0.3,0.2-0.5,0.4-0.5c0,0,0,0,0.1,0h3.4c0.3,0,0.5,0.2,0.5,0.4c0,0,0,0,0,0.1v24.1
	c0,0.2-0.1,0.5-0.4,0.5c0,0,0,0-0.1,0h-3.3c-0.2,0-0.5-0.2-0.5-0.4l-3.3-10.9c-0.1-0.2-0.3-0.2-0.3,0v10.8c0,0.3-0.2,0.5-0.4,0.5
	c0,0,0,0-0.1,0h-3.4C24,33,23.8,32.8,23.8,32.5C23.8,32.5,23.8,32.5,23.8,32.5z"/>
<path id="Caminho_63" class="st1" d="M38,32.5V8.4c0-0.3,0.2-0.5,0.4-0.5c0,0,0.1,0,0.1,0h3.6c0.3,0,0.5,0.2,0.5,0.4c0,0,0,0,0,0.1
	v9.3c0,0.3,0.2,0.5,0.4,0.5c0,0,0,0,0.1,0h1.8c0.3,0,0.5-0.2,0.5-0.4c0,0,0,0,0-0.1V8.4c0-0.3,0.2-0.5,0.4-0.5c0,0,0.1,0,0.1,0h3.6
	c0.3,0,0.5,0.2,0.5,0.4c0,0,0,0,0,0.1v24.1c0,0.3-0.2,0.5-0.4,0.5c0,0-0.1,0-0.1,0h-3.6c-0.3,0-0.5-0.2-0.5-0.4c0,0,0,0,0-0.1v-9.6
	c0-0.3-0.2-0.5-0.4-0.5c0,0,0,0-0.1,0h-1.8c-0.3,0-0.5,0.2-0.5,0.4c0,0,0,0,0,0.1v9.6c0,0.3-0.2,0.5-0.4,0.5c0,0-0.1,0-0.1,0h-3.6
	C38.2,33,38,32.8,38,32.5C38,32.5,38,32.5,38,32.5z"/>
<path id="Caminho_64" class="st1" d="M51.7,13.6c0-3.7,2.1-6,5.6-6c3.4,0,5.6,2.2,5.6,6v13.6c0,3.7-2.1,6-5.6,6
	c-3.5,0-5.6-2.2-5.6-6V13.6z M57.3,29c0.9,0,1-0.7,1-2.5V14.4c0-1.8-0.1-2.5-1-2.5c-0.9,0-1,0.7-1,2.5v12.1
	C56.3,28.3,56.4,29,57.3,29L57.3,29z"/>
<path id="Caminho_65" class="st1" d="M64.7,32.5V8.4c0-0.3,0.2-0.5,0.4-0.5c0,0,0.1,0,0.1,0h5.1c3.4,0,5.7,2.2,5.7,6v3.6
	c0.1,1.6-0.5,3.1-1.5,4.3c-0.2,0.2-0.2,0.4-0.2,0.6l1.6,9.9c0.1,0.5-0.1,0.7-0.4,0.7H72c-0.3,0-0.5-0.1-0.6-0.6l-1.1-8.4
	c0-0.3-0.2-0.5-0.4-0.5h-0.2c-0.3,0-0.5,0.2-0.5,0.5c0,0,0,0,0,0v8.5c0,0.3-0.2,0.5-0.4,0.5c0,0-0.1,0-0.1,0h-3.6
	C64.9,33,64.7,32.8,64.7,32.5C64.7,32.5,64.7,32.5,64.7,32.5z M70.3,19.2c0.8,0,1.1-0.7,1.1-2.5v-2.1c0-1.8-0.3-2.5-1.1-2.5h-0.6
	c-0.3,0-0.5,0.2-0.5,0.4c0,0,0,0,0,0.1v6.2c0,0.3,0.2,0.5,0.4,0.5c0,0,0,0,0.1,0L70.3,19.2z"/>
<path id="Caminho_473" class="st2" d="M78.1,9"/>
<path id="Caminho_66" d="M99.4,44.2H81.2c-1.9,0-3.5-1.6-3.5-3.5V3.5c0-1.9,1.6-3.5,3.5-3.5h18.2c1.9,0,3.5,1.6,3.5,3.5v37.1
	C102.9,42.6,101.3,44.2,99.4,44.2z M81.2,0.9c-1.5,0-2.6,1.2-2.6,2.6v37.1c0,1.5,1.2,2.6,2.6,2.6h18.2c1.5,0,2.6-1.2,2.6-2.6V3.5
	c0-1.5-1.2-2.6-2.6-2.6H81.2z"/>
<path id="Caminho_67" d="M92.7,41.9h-4.8c-0.7,0-1.2-0.6-1.2-1.3c0-0.7,0.5-1.2,1.2-1.2h4.8c0.7,0,1.2,0.6,1.2,1.3
	C93.9,41.3,93.3,41.8,92.7,41.9z M87.9,40.3c-0.2,0-0.3,0.2-0.3,0.3c0,0.2,0.2,0.3,0.3,0.3h4.8c0.2,0,0.3-0.2,0.3-0.3
	c0-0.2-0.2-0.3-0.3-0.3H87.9z"/>
<path id="Caminho_68" d="M91.6,3.6H87c-0.2,0-0.4-0.2-0.4-0.5c0-0.2,0.2-0.4,0.4-0.4h4.6c0.2,0,0.4,0.2,0.4,0.5
	C92,3.4,91.8,3.6,91.6,3.6z"/>
<path id="Caminho_69" d="M93.5,3.6H93c-0.2,0-0.4-0.2-0.4-0.5c0-0.2,0.2-0.4,0.4-0.4h0.5c0.2,0,0.4,0.2,0.4,0.5
	C93.9,3.4,93.7,3.6,93.5,3.6z"/>
<path id="Caminho_70" d="M102.4,37.8H78.1c-0.2,0-0.4-0.2-0.4-0.5c0-0.2,0.2-0.4,0.4-0.4h24.3c0.2,0,0.4,0.2,0.4,0.5
	C102.8,37.6,102.7,37.8,102.4,37.8z"/>
<path id="Retângulo_33" class="st1" d="M90.3,7L90.3,7c4.5,0,8.1,3.6,8.1,8.1V19c0,4.5-3.6,8.1-8.1,8.1l0,0c-4.5,0-8.1-3.6-8.1-8.1
	v-3.8C82.1,10.7,85.8,7,90.3,7z"/>
<path id="Caminho_71" d="M90.3,27.6c-4.7,0-8.6-3.8-8.6-8.6c0,0,0,0,0,0v-3.8c-0.1-4.7,3.8-8.6,8.5-8.7s8.6,3.8,8.7,8.5
	c0,0.1,0,0.1,0,0.2V19C98.9,23.7,95,27.5,90.3,27.6C90.3,27.6,90.3,27.6,90.3,27.6L90.3,27.6z M90.3,7.5c-4.2,0-7.7,3.4-7.7,7.7v0
	V19c0,4.2,3.4,7.7,7.7,7.7l0,0l0,0c4.2,0,7.7-3.4,7.7-7.7c0,0,0,0,0,0v-3.8C98,10.9,94.5,7.5,90.3,7.5L90.3,7.5L90.3,7.5z"/>
<path id="Retângulo_34" class="st1" d="M82.1,14.9L82.1,14.9L82.1,14.9v4.4l0,0l0,0c-0.7,0-1.3-0.6-1.3-1.3c0,0,0,0,0,0v-1.7
	C80.8,15.5,81.4,14.9,82.1,14.9z"/>
<path id="Caminho_72" d="M82.6,19.7h-0.5c-1,0-1.8-0.8-1.8-1.8v-1.7c0-1,0.8-1.8,1.8-1.8h0.5V19.7z M81.7,15.4
	c-0.3,0.2-0.4,0.5-0.4,0.8v1.7c0,0.3,0.2,0.6,0.4,0.8V15.4z"/>
<path id="Retângulo_35" class="st1" d="M98.4,19.3L98.4,19.3L98.4,19.3v-4.4l0,0l0,0c0.7,0,1.3,0.6,1.3,1.3c0,0,0,0,0,0v1.7
	C99.7,18.7,99.1,19.3,98.4,19.3z"/>
<path id="Caminho_73" d="M98.4,19.7h-0.5v-5.3h0.5c1,0,1.8,0.8,1.8,1.8v1.7C100.2,18.9,99.4,19.7,98.4,19.7z M98.8,15.4v3.3
	c0.3-0.2,0.4-0.5,0.4-0.8v-1.7C99.3,15.9,99.1,15.6,98.8,15.4L98.8,15.4z"/>
<path id="Caminho_74" class="st1" d="M94.8,23.5c-1.2-0.6-2.8-0.1-3.4,1.1c0,0,0,0,0,0c0-0.6-0.5-1.1-1.1-1.1s-1.1,0.5-1.1,1.1
	c-0.6,0-1.1-0.5-1.1-1.1l0,0l0,0c0,0.6-0.5,1.1-1.1,1.1s-1.1-0.5-1.1-1.1l0,0c0-2.5,2-4.5,4.5-4.5S94.8,21,94.8,23.5z"/>
<path id="Caminho_75" d="M93.7,25c-0.6-0.6-1.6-0.6-2.2,0c0,0,0,0,0,0c-0.6-0.6-1.6-0.6-2.2,0c0,0,0,0,0,0c-0.6-0.6-1.6-0.6-2.2,0
	c0,0,0,0,0,0c-0.9,0-1.6-0.7-1.6-1.6l0,0c0-2.7,2.2-4.9,5-4.9c2.7,0,4.9,2.2,4.9,4.9l0,0C95.2,24.3,94.5,25,93.7,25z M93,23.5
	c0,0.4,0.3,0.7,0.7,0.7c0.4,0,0.7-0.3,0.7-0.7c0,0,0,0,0,0l0,0c0-2.2-1.8-4-4.1-4c-2.2,0-4,1.8-4,4c0,0.4,0.3,0.7,0.7,0.7
	c0.4,0,0.7-0.3,0.7-0.7c0,0,0,0,0,0c0-0.2,0.2-0.4,0.5-0.4c0.2,0,0.4,0.2,0.4,0.4l0,0c0,0.4,0.3,0.7,0.7,0.7c0.4,0,0.7-0.3,0.7-0.7
	c0,0,0,0,0,0c0-0.2,0.2-0.4,0.5-0.4c0.2,0,0.4,0.2,0.4,0.4c0,0.4,0.3,0.7,0.7,0.7c0.4,0,0.7-0.3,0.7-0.7c0,0,0,0,0,0
	c0-0.2,0.2-0.4,0.5-0.4C92.8,23.1,93,23.2,93,23.5L93,23.5z"/>
<path id="Caminho_76" class="st1" d="M92.1,18.4c0,1-0.8,1.9-1.9,1.9c-1,0-1.9-0.8-1.9-1.9"/>
<path id="Caminho_77" d="M90.3,20.7c-1.3,0-2.3-1-2.3-2.3c0-0.2,0.2-0.4,0.5-0.4c0.2,0,0.4,0.2,0.4,0.4c0,0.8,0.6,1.4,1.4,1.5
	c0.8,0,1.4-0.6,1.5-1.4c0,0,0,0,0-0.1c0-0.2,0.2-0.4,0.5-0.4c0.2,0,0.4,0.2,0.4,0.4C92.6,19.6,91.6,20.7,90.3,20.7z"/>
<circle id="Elipse_15" cx="85.3" cy="17.1" r="0.5"/>
<circle id="Elipse_16" cx="95.2" cy="17.1" r="0.5"/>
<path id="Caminho_78" class="st1" d="M97.1,33.6c-1,0-1.8-0.5-2.3-1.3h-8.5c-0.7,1.3-2.4,1.7-3.7,1c-1.3-0.7-1.7-2.4-1-3.7
	c0.5-0.8,1.4-1.3,2.3-1.3h0c1,0,1.8,0.5,2.3,1.3h8.5c0.7-1.3,2.4-1.7,3.7-1c0.3,0.2,0.6,0.4,0.8,0.7c0.1,0.2,0.1,0.5-0.1,0.6
	C99.1,30,99,30,98.9,30h-1.3c0,0-0.1,0-0.1,0.1v1.8c0,0,0,0.1,0.1,0.1h1.3c0.2,0,0.4,0.2,0.4,0.4c0,0.1,0,0.2-0.1,0.3
	C98.7,33.2,97.9,33.6,97.1,33.6z M84,31.8l0.8-0.4v-0.9L84,30l-0.8,0.4v0.9L84,31.8z"/>
<path id="Caminho_79" d="M84,28.7L84,28.7c0.9,0,1.6,0.5,2,1.3l0,0.1h9l0-0.1c0.6-1.1,1.9-1.6,3-1c0.3,0.2,0.6,0.4,0.8,0.6h-1.3
	c-0.3,0-0.5,0.2-0.5,0.5v1.8c0,0.3,0.2,0.5,0.5,0.5h1.3c-0.8,1-2.2,1.2-3.2,0.4c-0.3-0.2-0.5-0.5-0.6-0.8l0-0.1h-9l0,0.1
	c-0.6,1.1-1.9,1.6-3,1c-0.8-0.4-1.3-1.2-1.3-2l0,0C81.7,29.7,82.7,28.7,84,28.7 M84,32.3l1.2-0.7v-1.4L84,29.5l-1.2,0.7v1.4L84,32.3
	 M84,27.8L84,27.8c-1.7,0-3.1,1.4-3.1,3.1v0c0,1.7,1.4,3.1,3.1,3.1c1,0,2-0.5,2.6-1.3h8c1,1.4,2.9,1.8,4.3,0.8
	c0.3-0.2,0.5-0.4,0.7-0.6c0.3-0.4,0.2-0.9-0.2-1.2c-0.2-0.1-0.3-0.2-0.5-0.2h-0.9v-1h0.9c0.5,0,0.9-0.4,0.9-0.9
	c0-0.2-0.1-0.4-0.2-0.5c-1.1-1.4-3-1.6-4.4-0.6c-0.2,0.2-0.5,0.4-0.6,0.7h-8C86,28.3,85,27.8,84,27.8L84,27.8z M83.6,30.7l0.3-0.2
	l0.3,0.2v0.4L84,31.3l-0.3-0.2V30.7z"/>
<path id="Caminho_80" class="st1" d="M105,32.7V8c0-0.3,0.2-0.5,0.4-0.5c0,0,0.1,0,0.1,0h5.2c3.5,0,5.7,2.3,5.7,6.1v5
	c0,3.8-2.2,6.1-5.7,6.1h-0.5c-0.3,0-0.5,0.2-0.5,0.5c0,0,0,0,0,0.1v7.4c0,0.3-0.2,0.5-0.4,0.5c0,0-0.1,0-0.1,0h-3.7
	C105.3,33.2,105,33,105,32.7C105,32.7,105,32.7,105,32.7z M110.8,20.5c0.9,0,1-0.7,1-2.6v-3.5c0-1.9-0.2-2.6-1-2.6h-0.5
	c-0.3,0-0.5,0.2-0.5,0.5c0,0,0,0,0,0.1V20c0,0.3,0.2,0.5,0.5,0.5c0,0,0,0,0.1,0L110.8,20.5z"/>
<path id="Caminho_81" class="st1" d="M117.8,13.4c0-3.8,2.2-6.1,5.7-6.1c3.5,0,5.7,2.3,5.7,6.1v13.9c0,3.8-2.2,6.1-5.7,6.1
	c-3.6,0-5.7-2.3-5.7-6.1V13.4z M123.6,29.1c0.9,0,1-0.7,1-2.6V14.2c0-1.9-0.1-2.6-1-2.6c-0.9,0-1.1,0.7-1.1,2.6v12.4
	C122.5,28.4,122.6,29.1,123.6,29.1L123.6,29.1z"/>
<path id="Caminho_82" class="st1" d="M131.7,32.7V8c0-0.3,0.2-0.5,0.4-0.5c0,0,0.1,0,0.1,0h5.3c3.5,0,5.8,2.3,5.8,6.1v3.7
	c0.1,1.6-0.5,3.2-1.5,4.4c-0.2,0.2-0.3,0.4-0.2,0.6l1.6,10.1c0.1,0.5-0.1,0.7-0.4,0.7h-3.5c-0.3,0-0.5-0.1-0.6-0.6l-1.1-8.6
	c0-0.3-0.2-0.5-0.4-0.5h-0.2c-0.3,0-0.5,0.2-0.5,0.5c0,0,0,0,0,0v8.7c0,0.3-0.2,0.5-0.4,0.5c0,0-0.1,0-0.1,0h-3.7
	C131.9,33.2,131.7,33,131.7,32.7C131.7,32.7,131.7,32.7,131.7,32.7z M137.5,19.1c0.8,0,1.1-0.7,1.1-2.6v-2.2c0-1.8-0.3-2.6-1.1-2.6
	h-0.6c-0.3,0-0.5,0.2-0.5,0.5c0,0,0,0,0,0.1v6.3c0,0.3,0.2,0.5,0.5,0.5c0,0,0,0,0.1,0L137.5,19.1z"/>
<path id="Caminho_83" class="st1" d="M144.1,8c0-0.3,0.2-0.5,0.5-0.5c0,0,0,0,0.1,0h8.8c0.3,0,0.5,0.2,0.5,0.4c0,0,0,0.1,0,0.1v3.3
	c0,0.3-0.2,0.5-0.5,0.5c0,0,0,0-0.1,0h-1.6c-0.3,0-0.5,0.2-0.5,0.5c0,0,0,0,0,0.1v20.4c0,0.3-0.2,0.5-0.4,0.5c0,0-0.1,0-0.1,0h-3.7
	c-0.3,0-0.5-0.2-0.5-0.5c0,0,0,0,0-0.1V12.3c0-0.3-0.2-0.5-0.5-0.5c0,0,0,0-0.1,0h-1.5c-0.3,0-0.5-0.2-0.5-0.4c0,0,0-0.1,0-0.1
	L144.1,8z"/>
<path id="Caminho_84" class="st1" d="M167.4,13.4c0-3.8,2.2-6.1,5.7-6.1c3.5,0,5.7,2.3,5.7,6.1v13.9c0,3.8-2.2,6.1-5.7,6.1
	c-3.6,0-5.7-2.3-5.7-6.1V13.4z M173.1,29.1c0.9,0,1-0.7,1-2.6V14.2c0-1.9-0.1-2.6-1-2.6c-0.9,0-1.1,0.7-1.1,2.6v12.4
	C172.1,28.4,172.2,29.1,173.1,29.1L173.1,29.1z"/>
<path id="Caminho_85" class="st1" d="M166.1,32.6l-3.7-24.5c-0.1-0.5-0.3-0.6-0.6-0.6h-3.6c-0.3,0-0.5,0.1-0.6,0.6L154,32.6
	c-0.1,0.4,0.2,0.6,0.4,0.6h3.3c0.2,0,0.4-0.1,0.5-0.5l0.2-2.2c0-0.3,0.1-0.5,0.4-0.5h2.4c0.3,0,0.4,0.2,0.4,0.5l0.2,2.2
	c0,0.4,0.2,0.5,0.4,0.5h3.3c0.2,0,0.5-0.2,0.5-0.4C166.1,32.7,166.1,32.7,166.1,32.6z M160.7,25.9h-1.4c-0.2,0-0.2-0.1-0.2-0.4
	l0.8-7.9c0-0.1,0.1-0.2,0.2-0.2c0.1,0,0.2,0.1,0.2,0.2l0.8,7.9C161,25.8,160.9,25.9,160.7,25.9z"/>
<path id="Retângulo_36" class="st1" d="M159.3,2.5h1.4c0.9,0,1.6,0.7,1.6,1.6c0,0,0,0,0,0l0,0c0,0.9-0.7,1.6-1.6,1.6h-1.8
	c-0.7,0-1.2-0.5-1.2-1.2c0,0,0,0,0,0V4.1C157.7,3.2,158.4,2.5,159.3,2.5C159.3,2.5,159.3,2.5,159.3,2.5z"/>
</svg>
