<svg xmlns="http://www.w3.org/2000/svg" width="57.718" height="79.746" viewBox="0 0 57.718 79.746">
  <g id="Grupo_649" data-name="Grupo 649" transform="translate(-10.507 -207.883)">
    <g id="Grupo_132" data-name="Grupo 132" transform="translate(15.722 209.195)">
      <rect id="Retângulo_26" data-name="Retângulo 26" width="47.345" height="58.431" rx="23.672" fill="#fff"/>
    </g>
    <g id="Grupo_133" data-name="Grupo 133" transform="translate(14.41 207.883)">
      <path id="Caminho_47" data-name="Caminho 47" d="M1533.987,503.485A24.965,24.965,0,0,1,1509,478.5V467.414a24.984,24.984,0,1,1,49.968,0V478.5a24.965,24.965,0,0,1-24.984,24.984Zm0-58.432a22.361,22.361,0,0,0-22.361,22.361V478.5a22.36,22.36,0,0,0,22.361,22.361h0a22.36,22.36,0,0,0,22.36-22.361V467.414a22.361,22.361,0,0,0-22.36-22.361Z" transform="translate(-1509.003 -442.43)"/>
    </g>
    <g id="Grupo_135" data-name="Grupo 135" transform="translate(11.819 231.991)">
      <path id="Retângulo_27" data-name="Retângulo 27" d="M3.9,0h0a0,0,0,0,1,0,0V12.84a0,0,0,0,1,0,0h0A3.9,3.9,0,0,1,0,8.937V3.9A3.9,3.9,0,0,1,3.9,0Z" fill="#fff"/>
    </g>
    <g id="Grupo_136" data-name="Grupo 136" transform="translate(10.507 230.679)">
      <path id="Caminho_48" data-name="Caminho 48" d="M1505.979,513.676h-1.312a5.221,5.221,0,0,1-5.215-5.214v-5.034a5.221,5.221,0,0,1,5.215-5.215h1.312Zm-2.624-12.483a2.593,2.593,0,0,0-1.28,2.234v5.034a2.593,2.593,0,0,0,1.28,2.234Z" transform="translate(-1499.452 -498.212)"/>
    </g>
    <g id="Grupo_138" data-name="Grupo 138" transform="translate(63.01 231.991)">
      <path id="Retângulo_28" data-name="Retângulo 28" d="M3.9,0h0a0,0,0,0,1,0,0V12.84a0,0,0,0,1,0,0h0A3.9,3.9,0,0,1,0,8.937V3.9A3.9,3.9,0,0,1,3.9,0Z" transform="translate(3.903 12.84) rotate(180)" fill="#fff"/>
    </g>
    <g id="Grupo_139" data-name="Grupo 139" transform="translate(61.698 230.679)">
      <path id="Caminho_49" data-name="Caminho 49" d="M1626.031,513.676h-1.312V498.212h1.312a5.22,5.22,0,0,1,5.214,5.215v5.034A5.22,5.22,0,0,1,1626.031,513.676Zm1.312-12.483v9.5a2.592,2.592,0,0,0,1.279-2.234v-5.034A2.592,2.592,0,0,0,1627.343,501.193Z" transform="translate(-1624.719 -498.212)"/>
    </g>
    <g id="Grupo_143" data-name="Grupo 143" transform="translate(24.988 242.627)">
      <g id="Grupo_141" data-name="Grupo 141" transform="translate(1.312 1.312)">
        <path id="Caminho_50" data-name="Caminho 50" d="M1564.286,543.766a7.32,7.32,0,0,0-9.821,3.274,3.274,3.274,0,1,0-6.547,0,3.274,3.274,0,0,1-3.274-3.274v-.013a3.274,3.274,0,1,1-6.547,0h0a13.095,13.095,0,1,1,26.189,0Z" transform="translate(-1538.097 -530.66)" fill="#fff"/>
      </g>
      <g id="Grupo_142" data-name="Grupo 142">
        <path id="Caminho_51" data-name="Caminho 51" d="M1559.114,546.453a4.578,4.578,0,0,0-6.547,0,4.578,4.578,0,0,0-6.548,0,4.578,4.578,0,0,0-6.547-.013,4.591,4.591,0,0,1-4.585-4.583h0a14.406,14.406,0,0,1,28.813,0v.011A4.591,4.591,0,0,1,1559.114,546.453Zm-1.962-4.586a1.962,1.962,0,1,0,3.924,0v-.011a11.783,11.783,0,0,0-23.566,0,1.962,1.962,0,0,0,3.924,0,1.312,1.312,0,1,1,2.624,0v.013a1.962,1.962,0,0,0,3.924,0,1.312,1.312,0,1,1,2.624,0,1.962,1.962,0,0,0,3.924,0,1.312,1.312,0,1,1,2.624,0Z" transform="translate(-1534.887 -527.45)"/>
      </g>
    </g>
    <g id="Grupo_146" data-name="Grupo 146" transform="translate(32.654 240.896)">
      <g id="Grupo_144" data-name="Grupo 144" transform="translate(1.312 1.312)">
        <path id="Caminho_52" data-name="Caminho 52" d="M1567.713,526.425a5.429,5.429,0,1,1-10.857,0" transform="translate(-1556.856 -526.425)" fill="#fff"/>
      </g>
      <g id="Grupo_145" data-name="Grupo 145">
        <path id="Caminho_53" data-name="Caminho 53" d="M1560.386,531.267a6.748,6.748,0,0,1-6.74-6.74,1.312,1.312,0,0,1,2.624,0,4.117,4.117,0,1,0,8.234,0,1.312,1.312,0,0,1,2.624,0A6.748,6.748,0,0,1,1560.386,531.267Z" transform="translate(-1553.646 -523.215)"/>
      </g>
    </g>
    <g id="Grupo_148" data-name="Grupo 148" transform="translate(13.355 271.083)">
      <path id="Caminho_54" data-name="Caminho 54" d="M1552.266,612.484a7.654,7.654,0,0,1-6.688-3.881h-24.766a7.7,7.7,0,1,1-6.689-11.521h.022a7.658,7.658,0,0,1,6.667,3.881h24.766a7.7,7.7,0,0,1,12.781-.893,1.143,1.143,0,0,1-.905,1.842h-3.782a.262.262,0,0,0-.262.262v5.219a.262.262,0,0,0,.262.262h3.782a1.143,1.143,0,0,1,.905,1.842A7.638,7.638,0,0,1,1552.266,612.484Zm-38.143-4.973,2.363-1.365v-2.728l-2.363-1.364-2.362,1.364v2.728Z" transform="translate(-1506.422 -597.082)" fill="#fff"/>
    </g>
    <g id="Grupo_149" data-name="Grupo 149" transform="translate(12.212 269.939)">
      <path id="Caminho_55" data-name="Caminho 55" d="M1512.47,596.571h.019a6.526,6.526,0,0,1,5.864,3.657l.11.224h26.156l.11-.224a6.562,6.562,0,0,1,11.071-1.114h-3.782a1.407,1.407,0,0,0-1.406,1.405v5.219a1.408,1.408,0,0,0,1.406,1.405h3.782a6.562,6.562,0,0,1-11.071-1.114l-.11-.224h-26.156l-.11.224a6.523,6.523,0,0,1-5.883,3.657h0a6.559,6.559,0,0,1-6.558-6.558v-.012a6.576,6.576,0,0,1,6.558-6.546m0,10.606,3.506-2.024V601.1l-3.506-2.024-3.506,2.024v4.048l3.506,2.024m0-12.893h0a8.863,8.863,0,0,0-8.845,8.829v.016a8.847,8.847,0,0,0,16.168,4.964h23.5a8.85,8.85,0,0,0,14.322.448,2.287,2.287,0,0,0-1.811-3.683h-2.9V601.4h2.9a2.287,2.287,0,0,0,1.811-3.683,8.85,8.85,0,0,0-14.322.448h-23.5a8.791,8.791,0,0,0-7.3-3.881Zm-1.22,8.141,1.219-.7,1.219.7v1.407l-1.219.7-1.219-.7v-1.407Z" transform="translate(-1503.625 -594.284)"/>
    </g>
    <circle id="Elipse_11" data-name="Elipse 11" cx="7.796" cy="7.796" r="7.796" transform="translate(21.554 226.992)"/>
    <path id="Caminho_56" data-name="Caminho 56" d="M1532.111,504.112a9.295,9.295,0,1,1,9.295-9.295A9.306,9.306,0,0,1,1532.111,504.112Zm0-15.591a6.3,6.3,0,1,0,6.3,6.3A6.3,6.3,0,0,0,1532.111,488.521Z" transform="translate(-1502.761 -260.03)"/>
    <circle id="Elipse_12" data-name="Elipse 12" cx="7.796" cy="7.796" r="7.796" transform="translate(41.643 226.992)"/>
    <path id="Caminho_57" data-name="Caminho 57" d="M1581.269,504.112a9.295,9.295,0,1,1,9.295-9.295A9.305,9.305,0,0,1,1581.269,504.112Zm0-15.591a6.3,6.3,0,1,0,6.3,6.3A6.3,6.3,0,0,0,1581.269,488.521Z" transform="translate(-1531.83 -260.03)"/>
    <path id="Caminho_58" data-name="Caminho 58" d="M1597.693,500.154a1.5,1.5,0,0,1-1.5-1.5,3.649,3.649,0,0,0-3.645-3.644,1.5,1.5,0,1,1,0-3,6.65,6.65,0,0,1,6.643,6.643A1.5,1.5,0,0,1,1597.693,500.154Z" transform="translate(-1543.111 -263.867)" fill="#fff"/>
    <path id="Caminho_59" data-name="Caminho 59" d="M1548.535,500.154a1.5,1.5,0,0,1-1.5-1.5,3.649,3.649,0,0,0-3.645-3.644,1.5,1.5,0,1,1,0-3,6.651,6.651,0,0,1,6.643,6.643A1.5,1.5,0,0,1,1548.535,500.154Z" transform="translate(-1514.042 -263.867)" fill="#fff"/>
    <rect id="Retângulo_29" data-name="Retângulo 29" width="6.596" height="2.998" transform="translate(15.754 230.44)"/>
    <rect id="Retângulo_30" data-name="Retângulo 30" width="4.947" height="2.998" transform="translate(37.192 230.44)"/>
    <rect id="Retângulo_31" data-name="Retângulo 31" width="6.596" height="2.998" transform="translate(57.281 230.44)"/>
    <g id="Grupo_158" data-name="Grupo 158" transform="translate(48.066 237.004)">
      <circle id="Elipse_13" data-name="Elipse 13" cx="1.329" cy="1.329" r="1.329"/>
    </g>
    <g id="Grupo_160" data-name="Grupo 160" transform="translate(27.977 237.004)">
      <circle id="Elipse_14" data-name="Elipse 14" cx="1.329" cy="1.329" r="1.329"/>
    </g>
  </g>
</svg>
